<svg width="36" height="36" viewBox="0 0 36 36" fill="none" xmlns="http://www.w3.org/2000/svg">
<mask id="mask0_629_91" style="mask-type:alpha" maskUnits="userSpaceOnUse" x="6" y="6" width="24" height="24">
<rect x="6" y="6" width="24" height="24" fill="#D9D9D9"/>
</mask>
<g mask="url(#mask0_629_91)">
<path d="M16 17.6923C15.0375 17.6923 14.2136 17.3496 13.5281 16.6642C12.8427 15.9788 12.5 15.1548 12.5 14.1924C12.5 13.2299 12.8427 12.4059 13.5281 11.7205C14.2136 11.0351 15.0375 10.6924 16 10.6924C16.9625 10.6924 17.7864 11.0351 18.4718 11.7205C19.1573 12.4059 19.5 13.2299 19.5 14.1924C19.5 15.1548 19.1573 15.9788 18.4718 16.6642C17.7864 17.3496 16.9625 17.6923 16 17.6923ZM8.50002 25.3077V23.0846C8.50002 22.5795 8.62887 22.1222 8.88657 21.7125C9.14426 21.3029 9.50386 20.986 9.9654 20.7616C10.7962 20.3475 11.6936 20.0017 12.6577 19.7241C13.6218 19.4465 14.7359 19.3078 16 19.3078H16.2923C16.3731 19.3078 16.4602 19.318 16.5538 19.3385C16.4526 19.5744 16.3689 19.8148 16.3029 20.0597C16.2369 20.3045 16.1821 20.5539 16.1385 20.8077H16C14.8487 20.8077 13.8295 20.9401 12.9423 21.2048C12.0551 21.4696 11.2923 21.768 10.6538 22.1C10.4269 22.2218 10.2612 22.3641 10.1567 22.5269C10.0522 22.6898 10 22.8757 10 23.0846V23.8077H16.3C16.3743 24.0615 16.4708 24.3192 16.5894 24.5808C16.708 24.8423 16.8384 25.0846 16.9807 25.3077H8.50002ZM22.1058 26.048L21.8827 24.7211C21.6442 24.6506 21.4199 24.5583 21.2096 24.4442C20.9994 24.3301 20.7994 24.1872 20.6096 24.0154L19.3423 24.4557L18.6308 23.2462L19.6654 22.4C19.5936 22.141 19.5577 21.8859 19.5577 21.6346C19.5577 21.3833 19.5936 21.1282 19.6654 20.8692L18.6404 20.0039L19.3519 18.7943L20.6096 19.2443C20.793 19.0725 20.9914 18.9311 21.2048 18.8202C21.4183 18.7093 21.6442 18.6186 21.8827 18.5481L22.1058 17.2212H23.5288L23.7423 18.5481C23.9807 18.6186 24.2067 18.7119 24.4201 18.8279C24.6336 18.9439 24.832 19.093 25.0153 19.275L26.273 18.7943L26.9845 20.0346L25.9595 20.9C26.0313 21.1405 26.0672 21.391 26.0672 21.6515C26.0672 21.9121 26.0313 22.1615 25.9595 22.4L26.9942 23.2462L26.2826 24.4557L25.0153 24.0154C24.8256 24.1872 24.6256 24.3301 24.4153 24.4442C24.2051 24.5583 23.9807 24.6506 23.7423 24.7211L23.5288 26.048H22.1058ZM22.8085 23.5385C23.3323 23.5385 23.7804 23.352 24.1529 22.979C24.5253 22.606 24.7115 22.1576 24.7115 21.6338C24.7115 21.11 24.525 20.6619 24.152 20.2894C23.779 19.917 23.3306 19.7308 22.8068 19.7308C22.283 19.7308 21.8349 19.9173 21.4625 20.2903C21.0901 20.6633 20.9038 21.1117 20.9038 21.6355C20.9038 22.1593 21.0903 22.6074 21.4633 22.9798C21.8363 23.3522 22.2847 23.5385 22.8085 23.5385ZM16 16.1924C16.55 16.1924 17.0208 15.9965 17.4125 15.6049C17.8042 15.2132 18 14.7424 18 14.1924C18 13.6424 17.8042 13.1715 17.4125 12.7799C17.0208 12.3882 16.55 12.1924 16 12.1924C15.45 12.1924 14.9792 12.3882 14.5875 12.7799C14.1958 13.1715 14 13.6424 14 14.1924C14 14.7424 14.1958 15.2132 14.5875 15.6049C14.9792 15.9965 15.45 16.1924 16 16.1924Z" fill="#3D404B"/>
</g>
</svg>
