<svg width="36" height="36" viewBox="0 0 36 36" fill="none" xmlns="http://www.w3.org/2000/svg">
<mask id="mask0_629_59" style="mask-type:alpha" maskUnits="userSpaceOnUse" x="6" y="6" width="24" height="24">
<rect x="6" y="6" width="24" height="24" fill="#D9D9D9"/>
</mask>
<g mask="url(#mask0_629_59)">
<path d="M17.9808 25.3653C17.1744 24.7704 16.3077 24.3108 15.3808 23.9865C14.4538 23.6621 13.4936 23.5 12.5 23.5C11.6128 23.5 10.7526 23.6269 9.91925 23.8807C9.08591 24.1346 8.27951 24.473 7.50002 24.8961V11.8385C8.24234 11.3615 9.03946 11.0192 9.89137 10.8116C10.7433 10.6039 11.6128 10.5 12.5 10.5C13.4731 10.5 14.4231 10.6378 15.35 10.9135C16.2769 11.1891 17.1602 11.577 18 12.077V23.5615C18.8269 23.0384 19.7045 22.6474 20.6327 22.3884C21.5609 22.1295 22.5167 22 23.5 22C24.1 22 24.6917 22.05 25.275 22.15C25.8583 22.25 26.4333 22.4032 27 22.6096V11.1193C27.2667 11.2103 27.5276 11.3115 27.7827 11.4231C28.0378 11.5346 28.2769 11.6731 28.5 11.8385V24.8961C27.7205 24.473 26.9141 24.1346 26.0807 23.8807C25.2474 23.6269 24.3872 23.5 23.5 23.5C22.5 23.5 21.5301 23.6573 20.5904 23.9721C19.6506 24.2868 18.7808 24.7512 17.9808 25.3653ZM20 21V12L25 7V16.5L20 21ZM16.5 22.8365V12.9846C15.8731 12.6808 15.2237 12.4407 14.5519 12.2644C13.8801 12.0881 13.1962 12 12.5 12C11.9 12 11.3026 12.0567 10.7077 12.1702C10.1128 12.2836 9.54358 12.4666 9 12.7192V22.625C9.56666 22.4211 10.1417 22.266 10.725 22.1596C11.3083 22.0532 11.9 22 12.5 22C13.1962 22 13.8792 22.0644 14.549 22.1932C15.2189 22.3221 15.8693 22.5365 16.5 22.8365Z" fill="#3D404B"/>
</g>
</svg>
