<svg width="36" height="36" viewBox="0 0 36 36" fill="none" xmlns="http://www.w3.org/2000/svg">
<mask id="mask0_629_64" style="mask-type:alpha" maskUnits="userSpaceOnUse" x="6" y="6" width="24" height="24">
<rect x="6" y="6" width="24" height="24" fill="#D9D9D9"/>
</mask>
<g mask="url(#mask0_629_64)">
<path d="M13.5577 27.5C12.7128 27.5 11.992 27.2016 11.3952 26.6048C10.7984 26.008 10.5 25.2871 10.5 24.4423V11.75C10.5 10.8474 10.8161 10.0801 11.4481 9.44808C12.0802 8.81603 12.8475 8.5 13.75 8.5H25.5V22.8846C25.0705 22.8846 24.7035 23.0368 24.399 23.3413C24.0945 23.6458 23.9423 24.0128 23.9423 24.4423C23.9423 24.8718 24.0945 25.2388 24.399 25.5433C24.7035 25.8477 25.0705 26 25.5 26V27.5H13.5577ZM12 21.8443C12.2269 21.6891 12.4702 21.5737 12.7298 21.4981C12.9894 21.4224 13.2654 21.3846 13.5577 21.3846H14.1923V9.99998H13.75C13.2692 9.99998 12.8574 10.1715 12.5144 10.5144C12.1715 10.8574 12 11.2692 12 11.75V21.8443ZM15.6923 21.3846H24V9.99998H15.6923V21.3846ZM13.5577 26H22.9019C22.7571 25.7731 22.6442 25.5324 22.5635 25.2779C22.4827 25.0234 22.4423 24.7448 22.4423 24.4423C22.4423 24.1564 22.4801 23.882 22.5558 23.6192C22.6314 23.3564 22.7468 23.1115 22.9019 22.8846H13.5577C13.1116 22.8846 12.7404 23.0368 12.4442 23.3413C12.1481 23.6458 12 24.0128 12 24.4423C12 24.8884 12.1481 25.2596 12.4442 25.5558C12.7404 25.8519 13.1116 26 13.5577 26Z" fill="#3D404B"/>
</g>
</svg>
