<svg width="36" height="36" viewBox="0 0 36 36" fill="none" xmlns="http://www.w3.org/2000/svg">
<mask id="mask0_629_75" style="mask-type:alpha" maskUnits="userSpaceOnUse" x="6" y="6" width="24" height="24">
<rect x="6" y="6" width="24" height="24" fill="#D9D9D9"/>
</mask>
<g mask="url(#mask0_629_75)">
<path d="M15.1923 14.6923V13.1923H23.8077V14.6923H15.1923ZM15.1923 17.5769V16.0769H23.8077V17.5769H15.1923ZM17.9231 27.5H12C11.3013 27.5 10.71 27.258 10.226 26.774C9.74201 26.29 9.50003 25.6987 9.50003 25V22.1154H12.5V8.5H26.5V15.2885L25 16.7884V9.99998H14V22.1154H19.6731L18.1731 23.6153H11V25C11 25.2833 11.0958 25.5208 11.2875 25.7125C11.4792 25.9041 11.7167 26 12 26H17.9231V27.5ZM20.1154 27.5V24.8577L26.3827 18.6154L29.0154 21.2423L22.7577 27.5H20.1154ZM21.3077 26.3077H22.2577L25.5039 23.0461L25.0442 22.5711L24.5789 22.1019L21.3077 25.3577V26.3077ZM25.0442 22.5711L24.5789 22.1019L25.5039 23.0461L25.0442 22.5711Z" fill="#3D404B"/>
</g>
</svg>
