<svg width="36" height="36" viewBox="0 0 36 36" fill="none" xmlns="http://www.w3.org/2000/svg">
<mask id="mask0_629_80" style="mask-type:alpha" maskUnits="userSpaceOnUse" x="6" y="6" width="24" height="24">
<rect x="6" y="6" width="24" height="24" fill="#D9D9D9"/>
</mask>
<g mask="url(#mask0_629_80)">
<path d="M7.79813 25.3077V23.0846C7.79813 22.5693 7.93114 22.1093 8.19718 21.7049C8.46319 21.3004 8.81846 20.9857 9.26298 20.7608C10.2133 20.2959 11.1689 19.9376 12.1298 19.6856C13.0907 19.4337 14.1468 19.3078 15.2981 19.3078C16.4494 19.3078 17.5055 19.4337 18.4664 19.6856C19.4273 19.9376 20.3829 20.2959 21.3332 20.7608C21.7777 20.9857 22.133 21.3004 22.399 21.7049C22.665 22.1093 22.7981 22.5693 22.7981 23.0846V25.3077H7.79813ZM24.7981 25.3077V22.9616C24.7981 22.3052 24.6373 21.6796 24.3159 21.0848C23.9945 20.4901 23.5385 19.9798 22.9481 19.5539C23.6186 19.6539 24.2551 19.8087 24.8577 20.0183C25.4602 20.228 26.0352 20.4757 26.5827 20.7616C27.0993 21.0372 27.4984 21.3621 27.7798 21.7362C28.0612 22.1103 28.2019 22.5188 28.2019 22.9616V25.3077H24.7981ZM15.2981 17.6923C14.3356 17.6923 13.5117 17.3496 12.8263 16.6642C12.1408 15.9788 11.7981 15.1548 11.7981 14.1924C11.7981 13.2299 12.1408 12.4059 12.8263 11.7205C13.5117 11.0351 14.3356 10.6924 15.2981 10.6924C16.2606 10.6924 17.0845 11.0351 17.77 11.7205C18.4554 12.4059 18.7981 13.2299 18.7981 14.1924C18.7981 15.1548 18.4554 15.9788 17.77 16.6642C17.0845 17.3496 16.2606 17.6923 15.2981 17.6923ZM23.9326 14.1924C23.9326 15.1548 23.5899 15.9788 22.9045 16.6642C22.2191 17.3496 21.3951 17.6923 20.4327 17.6923C20.3198 17.6923 20.1763 17.6795 20.0019 17.6539C19.8276 17.6282 19.684 17.6 19.5712 17.5693C19.9655 17.0951 20.2686 16.5692 20.4804 15.9913C20.6922 15.4135 20.7981 14.8134 20.7981 14.1912C20.7981 13.5689 20.69 12.9712 20.474 12.3981C20.258 11.8251 19.9571 11.2975 19.5712 10.8155C19.7147 10.7642 19.8583 10.7308 20.0019 10.7155C20.1455 10.7001 20.2891 10.6924 20.4327 10.6924C21.3951 10.6924 22.2191 11.0351 22.9045 11.7205C23.5899 12.4059 23.9326 13.2299 23.9326 14.1924ZM9.2981 23.8077H21.2981V23.0846C21.2981 22.8757 21.2459 22.6898 21.1414 22.5269C21.0369 22.3641 20.8712 22.2218 20.6443 22.1C19.8212 21.6757 18.9737 21.3542 18.102 21.1356C17.2302 20.917 16.2955 20.8077 15.2981 20.8077C14.3007 20.8077 13.3661 20.917 12.4943 21.1356C11.6225 21.3542 10.775 21.6757 9.95195 22.1C9.72503 22.2218 9.55933 22.3641 9.45483 22.5269C9.35034 22.6898 9.2981 22.8757 9.2981 23.0846V23.8077ZM15.2981 16.1924C15.8481 16.1924 16.3189 15.9965 16.7106 15.6049C17.1023 15.2132 17.2981 14.7424 17.2981 14.1924C17.2981 13.6424 17.1023 13.1715 16.7106 12.7799C16.3189 12.3882 15.8481 12.1924 15.2981 12.1924C14.7481 12.1924 14.2773 12.3882 13.8856 12.7799C13.4939 13.1715 13.2981 13.6424 13.2981 14.1924C13.2981 14.7424 13.4939 15.2132 13.8856 15.6049C14.2773 15.9965 14.7481 16.1924 15.2981 16.1924Z" fill="#3D404B"/>
</g>
</svg>
