<svg width="36" height="36" viewBox="0 0 36 36" fill="none" xmlns="http://www.w3.org/2000/svg">
<mask id="mask0_629_85" style="mask-type:alpha" maskUnits="userSpaceOnUse" x="6" y="6" width="24" height="24">
<rect x="6" y="6" width="24" height="24" fill="#D9D9D9"/>
</mask>
<g mask="url(#mask0_629_85)">
<path d="M19.7477 20.7692C19.9941 20.7692 20.2086 20.6786 20.3913 20.4974C20.574 20.3163 20.6653 20.1025 20.6653 19.8561C20.6653 19.6097 20.5748 19.3952 20.3936 19.2125C20.2124 19.0298 19.9987 18.9385 19.7523 18.9385C19.5059 18.9385 19.2913 19.029 19.1086 19.2102C18.9259 19.3914 18.8346 19.6051 18.8346 19.8515C18.8346 20.0979 18.9252 20.3125 19.1063 20.4952C19.2875 20.6779 19.5013 20.7692 19.7477 20.7692ZM19.1538 17.7615H20.3461C20.3589 17.3102 20.417 16.9753 20.5202 16.7567C20.6234 16.5381 20.8679 16.2423 21.2538 15.8692C21.7154 15.4269 22.0295 15.0532 22.1961 14.7481C22.3628 14.4429 22.4461 14.0885 22.4461 13.6846C22.4461 12.9731 22.1948 12.3862 21.6923 11.924C21.1897 11.4618 20.5423 11.2308 19.75 11.2308C19.1308 11.2308 18.5862 11.4016 18.1163 11.7433C17.6465 12.0849 17.3051 12.5436 17.0923 13.1192L18.173 13.5731C18.3423 13.1692 18.5593 12.8663 18.824 12.6644C19.0888 12.4625 19.3974 12.3615 19.75 12.3615C20.1884 12.3615 20.5487 12.4884 20.8307 12.7423C21.1128 12.9961 21.2538 13.3307 21.2538 13.7459C21.2538 13.9986 21.1824 14.2356 21.0394 14.4567C20.8965 14.6779 20.6487 14.95 20.2961 15.2731C19.8102 15.6987 19.4984 16.057 19.3606 16.3481C19.2228 16.6391 19.1538 17.1102 19.1538 17.7615ZM12.25 23.5V8.5H27.2499V23.5H12.25ZM13.75 22H25.75V9.99998H13.75V22ZM8.75005 26.9999V12.3077H10.25V25.5H23.4423V26.9999H8.75005Z" fill="#3D404B"/>
</g>
</svg>